# xmcd CD database file
#
# Track frame offsets:
#	150
#	12886
#	24122
#	36689
#	48225
#	60136
#	70921
#	83244
#	94836
#	106333
#	116992
#	129964
#	141368
#	153372
#	164776
#	176438
#	189155
#	200288
#	212448
#	224396
#	236004
#	247541
#
# Disc length: 3448 seconds
#
# Revision: 0
# Processed by: cddbd v1.4PL0 Copyright (c) Steve Scherf et al.
# Submitted via: CDex 1.40Release
#
DISCID=250d7616
DTITLE=Hi-Flyers - Disc 1
DYEAR=1900
DGENRE=Country
TTITLE0=Blue Bonnet (1937)
TTITLE1=Down The Trail (1937)
TTITLE2=Hi Flyer Stomp (1937)
TTITLE3=Home On The Range (1937)
TTITLE4=Honolulu Flapper Gal (1937)
TTITLE5=Jealous (1937)
TTITLE6=Joe Turner Blues (1937)
TTITLE7=Making A Baby From Georgia (1937)
TTITLE8=Old Tobacco Mill (1937)
TTITLE9=Static Stomp (1937)
TTITLE10=The Fieve Piece Band (1937)
TTITLE11=There's A Little Green Mill (1937)
TTITLE12=Under The Double Eagle (1937)
TTITLE13=You're The Only One To Care (1937)
TTITLE14=Answer To It Makes No Difference Now (1938)
TTITLE15=Don't Say Goodbye (1938)
TTITLE16=Dragging The Bow (1938)
TTITLE17=He's A Curbstone Cutie (1938)
TTITLE18=Lonesome Mama Blues (1938)
TTITLE19=My Bonnie Lies Over The Ocean (1938)
TTITLE20=Razz Ma Tazz Stomp (1938)
TTITLE21=You Can Depend On Me (1938)
EXTD=ID3G: 2
EXTT0=
EXTT1=
EXTT2=
EXTT3=
EXTT4=
EXTT5=
EXTT6=
EXTT7=
EXTT8=
EXTT9=
EXTT10=
EXTT11=
EXTT12=
EXTT13=
EXTT14=
EXTT15=
EXTT16=
EXTT17=
EXTT18=
EXTT19=
EXTT20=
EXTT21=
PLAYORDER=
